<!--?xml version="1.0" encoding="utf-8"?-->
<!-- Generator: Adobe Illustrator 18.0.0, SVG Export Plug-In . SVG Version: 6.00 Build 0)  -->

<svg version="1.1" id="_x32_" xmlns="http://www.w3.org/2000/svg" xmlns:xlink="http://www.w3.org/1999/xlink" x="0px" y="0px" viewBox="0 0 512 512" style="width: 64px; height: 64px; opacity: 1;" xml:space="preserve">
<style type="text/css">
	.st0{fill:#4B4B4B;}
</style>
<g>
	<path class="st0" d="M490.4,511.96c-4.32-20.56-8.96-39.76-12.48-65.2c-2.4-17.92-12.16-27.44-32.08-38.48L318.596,340.78
		l0.136-0.106l0.148-0.074l-4-33.76c0,0,0.079-0.08,0.24-0.24h-0.012c1.36-1.25,13.024-12.076,21.987-24.056
		c12.018-16.023,15.399-50.295,15.399-50.295s9.08-6.499,13.71-11.662c6.587-7.121,12.284-22.076,11.751-39.257
		c-0.446-13.352-12.285-20.919-16.648-18.961c35.696-59.286-11.661-132.548-11.661-132.548C358.817,23.234,354.276,0,354.276,0
		s-25.191,15.489-52.61,11.038c-27.418-4.362-78.781,2.226-78.781,2.226s-33.816,4.74-56.185,25.057
		c-27.25,24.75-30.75,43.75-24.911,81.142c2.608,16.698,9.614,42.64,9.703,43.441c-3.383-3.561-17.002,4.184-17.447,18.426
		c-0.534,17.181,5.163,32.136,11.75,39.257c4.629,5.163,11.929,11.662,11.929,11.662s5.164,34.272,17.18,50.295
		c8.964,11.98,20.628,22.806,21.988,24.056h-0.012c0.16,0.16,0.24,0.24,0.24,0.24l-4,33.76l0.242,0.194L66.131,408.277
		c-19.931,11.043-29.63,20.543-32.08,38.455c-3.03,22.154-6.926,39.575-10.736,57.32c-0.575,2.583-1.148,5.198-1.715,7.908h0.034
		c-0.003,0.014-0.005,0.026-0.008,0.04h468.748c-0.003-0.014-0.006-0.026-0.009-0.04H490.4z" style="fill: rgb(255, 255, 255);"></path>
</g>
</svg>
