<!--?xml version="1.0" encoding="utf-8"?-->
<!-- Generator: Adobe Illustrator 18.1.1, SVG Export Plug-In . SVG Version: 6.00 Build 0)  -->

<svg version="1.1" id="_x32_" xmlns="http://www.w3.org/2000/svg" xmlns:xlink="http://www.w3.org/1999/xlink" x="0px" y="0px" viewBox="0 0 512 512" style="width: 32px; height: 32px; opacity: 1;" xml:space="preserve">
<style type="text/css">
	.st0{fill:#4B4B4B;}
</style>
<g>
	<path class="st0" d="M417.295,170.179h-32.839v-41.716c0.008-35.405-14.405-67.66-37.624-90.839
		C323.652,14.413,291.397-0.016,255.992,0c-35.398-0.016-67.652,14.413-90.832,37.624c-23.211,23.18-37.632,55.434-37.617,90.839
		v41.716H94.697c-21.198,0-38.375,17.186-38.375,38.375v121.759C56.322,430.654,145.724,512,255.999,512
		c110.276,0,199.678-81.346,199.678-181.687V208.554C455.678,187.365,438.493,170.179,417.295,170.179z M270.548,341.836
		l11.704,50.025H229.74l11.704-50.033c-14.39-5.773-24.554-19.831-24.554-36.282c0-21.6,17.509-39.109,39.102-39.109
		c21.608,0,39.117,17.509,39.117,39.109C295.109,321.997,284.929,336.055,270.548,341.836z M339.328,170.179H172.671v-41.716
		c0.008-23.093,9.288-43.777,24.404-58.933c15.148-15.116,35.84-24.388,58.917-24.404c23.084,0.016,43.784,9.296,58.933,24.404
		c15.108,15.156,24.388,35.84,24.403,58.933V170.179z" style="fill: rgb(255, 255, 255);"></path>
</g>
</svg>
