<svg xmlns="http://www.w3.org/2000/svg" viewBox="0 0 591.09 165.05"><defs><style>.cls-1{fill:#fff;}</style></defs><title>アセット 10</title><g id="レイヤー_2" data-name="レイヤー 2"><g id="レイヤー_1-2" data-name="レイヤー 1"><path class="cls-1" d="M275,44.75l-13.18,7.81q-3.7-6.42-7-8.37a16.43,16.43,0,0,0-9-2.23,16.62,16.62,0,0,0-11.23,3.84,11.91,11.91,0,0,0-4.46,9.5q0,7.88,11.72,12.7l10.74,4.39q13.11,5.3,19.18,12.95t6.07,18.74q0,14.85-9.9,24.56t-24.76,9.77q-14,0-23.15-8.33t-11.23-23.4L225.23,103q1.12,9.48,3.91,13.11,5,7,14.64,7A17,17,0,0,0,256.4,118a17.57,17.57,0,0,0,5-12.89,18.1,18.1,0,0,0-.87-5.75,14.66,14.66,0,0,0-2.72-4.8,21.74,21.74,0,0,0-4.78-4.11,46,46,0,0,0-7-3.66l-10.39-4.31q-22.11-9.34-22.11-27.32a25.89,25.89,0,0,1,9.27-20.27q9.27-8.23,23.08-8.23Q264.56,26.69,275,44.75Z"/><path class="cls-1" d="M307.36,26.74V91.51L330,69H351.6L321.37,98.22l32.45,40.38H332.95l-23-29.38-2.57,2.57v26.8H291.28V26.74Z"/><path class="cls-1" d="M364.18,69h16.08v6.22a30.71,30.71,0,0,1,7.86-6.36,18,18,0,0,1,8.29-1.79q6.36,0,13.29,4.15l-7.36,14.72a15.35,15.35,0,0,0-8.93-3.29q-13.15,0-13.15,19.87v36.09H364.18Z"/><path class="cls-1" d="M435.46,69v38q0,17.3,13.65,17.3T462.76,107V69h16.08v38.33a44.85,44.85,0,0,1-2.07,14.44,24.25,24.25,0,0,1-6.93,9.79q-8.15,7.08-20.73,7.08t-20.66-7.08a24.65,24.65,0,0,1-7.08-9.79q-2-4.86-2-14.44V69Z"/><path class="cls-1" d="M495.6,69h16.08v6.43a33.6,33.6,0,0,1,7.93-6.58,19.25,19.25,0,0,1,8.79-1.79q11.79,0,18.65,10.29a24.15,24.15,0,0,1,20.51-10.29q23.51,0,23.51,28.52v43H574.93V99.94q0-10-2.43-14.15t-8.22-4.22q-6.65,0-9.68,5t-3,16.08v36H535.41V100.15q0-18.58-10.72-18.58-6.79,0-9.9,5.07t-3.11,16v36H495.6Z"/><path class="cls-1" d="M29.2,77.65v87.4L164.84,82.53,29.2,0V43.89L0,27V138.59l14.41-8.32V100.34h0V52L29.2,60.55v0l14.43,8.33v0L67.75,82.81,43.63,96.74V86Zm67.41,5.16-53-30.59V25L136,82.53,43.63,140.06V113.4Z"/></g></g></svg>